<svg xmlns="http://www.w3.org/2000/svg" width="1200" height="675" viewBox="0 0 1200 675">
  <rect width="100%" height="100%" fill="#f7f9fc"/>
  <rect x="48" y="42" width="1104" height="591" rx="10" fill="#ffffff" stroke="#cfd7e6" stroke-width="2"/>
<rect x="48" y="42" width="1104" height="44" rx="10" fill="#10151f"/>
<circle cx="78" cy="64" r="7" fill="#d92d20"/><circle cx="102" cy="64" r="7" fill="#f59f00"/><circle cx="126" cy="64" r="7" fill="#2f9e44"/>
   <rect x="96" y="126" width="420" height="500" fill="#ffffff" stroke="#cfd7e6"/>
   <text x="138" y="190" font-family="Inter,Arial" font-size="32" font-weight="700" fill="#10151f">Research note</text>
   <line x1="138" y1="236" x2="448" y2="236" stroke="#cfd7e6" stroke-width="3"/>
   <line x1="138" y1="286" x2="448" y2="286" stroke="#cfd7e6" stroke-width="3"/>
   <line x1="138" y1="336" x2="348" y2="336" stroke="#cfd7e6" stroke-width="3"/>
   <rect x="610" y="178" width="392" height="108" rx="8" fill="#eff6ff" stroke="#bfdbfe"/>
   <text x="646" y="244" font-family="Inter,Arial" font-size="28" font-weight="700" fill="#10151f">Export to PDF</text>
   <path d="M535 362c78 0 78-92 156-92" fill="none" stroke="#2563eb" stroke-width="8" stroke-linecap="round"/>
   <path d="M682 244l26 26-26 26" fill="none" stroke="#2563eb" stroke-width="8" stroke-linecap="round" stroke-linejoin="round"/>
</svg>
